#Comment line ignore any data following # character 
#Hierarchical Translation and Rotation (.htr) file 
[Header]	
#Header keywords are followed by a single value 
FileType HTR		#Single word string
DataType HTRS		#Translation followed by rotation and scale data
FileVersion 1		#integer
NumSegments 84		#integer
NumFrames 2		#integer
DataFrameRate 30		#integer, data frame rate in this file
EulerRotationOrder ZYX
CalibrationUnits mm
RotationUnits Degrees
GlobalAxisofGravity Y
BoneLengthAxis Y
ScaleFactor 1.00
[SegmentNames&Hierarchy]
#CHILD	PARENT
MASTER GLOBAL
root MASTER
chest root
L_mid_tent01 root
R_mid_tent01 root
spine01 root
Bip01_Neck chest
L_humerus chest
R_humerus chest
weapon_bone chest
Bip01_Head Bip01_Neck
eye_left_bone Bip01_Head
eye_right_bone Bip01_Head
L_forearm L_humerus
L_front_hand L_forearm
L_weapon_bone L_forearm
L_front_hand01_01 L_front_hand
L_front_hand02_01 L_front_hand
L_front_hand03_01 L_front_hand
L_front_hand01_02 L_front_hand01_01
L_front_hand02_02 L_front_hand02_01
L_front_hand03_02 L_front_hand03_01
R_forearm R_humerus
R_front_hand R_forearm
R_weapon_bone R_forearm
R_front_hand01_01 R_front_hand
R_front_hand02_01 R_front_hand
R_front_hand03_01 R_front_hand
R_front_hand01_02 R_front_hand01_01
R_front_hand02_02 R_front_hand02_01
R_front_hand03_02 R_front_hand03_01
null_rope01_connect L_mid_tent01
Rope1_Seg01 null_rope01_connect
Rope1_Seg02 Rope1_Seg01
Rope1_Seg03 Rope1_Seg02
Rope1_Seg04 Rope1_Seg03
Rope1_Seg05 Rope1_Seg04
Rope1_Seg06 Rope1_Seg05
Rope1_Seg07 Rope1_Seg06
Rope1_Seg09 Rope1_Seg07
L_mid_hand01 Rope1_Seg09
L_mid_hand02 Rope1_Seg09
L_mid_hand03 Rope1_Seg09
null_rope02_connect R_mid_tent01
Rope2_Seg01 null_rope02_connect
Rope2_Seg02 Rope2_Seg01
Rope2_Seg03 Rope2_Seg02
Rope2_Seg04 Rope2_Seg03
Rope2_Seg05 Rope2_Seg04
Rope2_Seg06 Rope2_Seg05
Rope2_Seg07 Rope2_Seg06
Rope2_Seg09 Rope2_Seg07
R_mid_hand01 Rope2_Seg09
R_mid_hand02 Rope2_Seg09
R_mid_hand03 Rope2_Seg09
spine02 spine01
spine03 spine02
pelvis spine03
null_rope03_connect pelvis
null_rope04_connect pelvis
Rope3_Seg01 null_rope03_connect
Rope3_Seg02 Rope3_Seg01
Rope3_Seg03 Rope3_Seg02
Rope3_Seg04 Rope3_Seg03
Rope3_Seg05 Rope3_Seg04
Rope3_Seg06 Rope3_Seg05
Rope3_Seg07 Rope3_Seg06
Rope3_Seg08 Rope3_Seg07
Rope3_Seg09 Rope3_Seg08
R_rear_hand01 Rope3_Seg09
R_rear_hand02 Rope3_Seg09
R_rear_hand03 Rope3_Seg09
Rope4_Seg01 null_rope04_connect
Rope4_Seg02 Rope4_Seg01
Rope4_Seg03 Rope4_Seg02
Rope4_Seg04 Rope4_Seg03
Rope4_Seg05 Rope4_Seg04
Rope4_Seg06 Rope4_Seg05
Rope4_Seg07 Rope4_Seg06
Rope4_Seg08 Rope4_Seg07
Rope4_Seg09 Rope4_Seg08
L_rear_hand01 Rope4_Seg09
L_rear_hand02 Rope4_Seg09
L_rear_hand03 Rope4_Seg09
[BasePosition]
#SegmentName Tx, Ty, Tz, Rx, Ry, Rz, BoneLength
MASTER 0.000000 0.000000 0.000000 -90.000000 0.000000 0.000000 10.000000 
root 0.000000 0.000000 0.000000 0.000000 0.000000 0.000000 10.000000 
chest 0.000000 0.000000 0.000000 0.000000 0.000000 0.000000 10.000000 
L_mid_tent01 0.000000 0.000000 0.000000 0.000000 0.000000 0.000000 10.000000 
R_mid_tent01 0.000000 0.000000 0.000000 0.000000 0.000000 0.000000 10.000000 
spine01 0.000000 0.000000 0.000000 0.000000 0.000000 0.000000 10.000000 
Bip01_Neck 0.000000 0.000000 0.000000 0.000000 0.000000 0.000000 10.000000 
L_humerus 0.000000 0.000000 0.000000 0.000000 0.000000 0.000000 10.000000 
R_humerus 0.000000 0.000000 0.000000 0.000000 0.000000 0.000000 10.000000 
weapon_bone 0.000000 0.000000 0.000000 0.000000 0.000000 0.000000 10.000000 
Bip01_Head 0.000000 0.000000 0.000000 0.000000 0.000000 0.000000 10.000000 
eye_left_bone 0.000000 0.000000 0.000000 0.000000 0.000000 0.000000 10.000000 
eye_right_bone 0.000000 0.000000 0.000000 0.000000 0.000000 0.000000 10.000000 
L_forearm 0.000000 0.000000 0.000000 0.000000 0.000000 0.000000 10.000000 
L_front_hand 0.000000 0.000000 0.000000 0.000000 0.000000 0.000000 10.000000 
L_weapon_bone 0.000000 0.000000 0.000000 0.000000 0.000000 0.000000 10.000000 
L_front_hand01_01 0.000000 0.000000 0.000000 0.000000 0.000000 0.000000 10.000000 
L_front_hand02_01 0.000000 0.000000 0.000000 0.000000 0.000000 0.000000 10.000000 
L_front_hand03_01 0.000000 0.000000 0.000000 0.000000 0.000000 0.000000 10.000000 
L_front_hand01_02 0.000000 0.000000 0.000000 0.000000 0.000000 0.000000 10.000000 
L_front_hand02_02 0.000000 0.000000 0.000000 0.000000 0.000000 0.000000 10.000000 
L_front_hand03_02 0.000000 0.000000 0.000000 0.000000 0.000000 0.000000 10.000000 
R_forearm 0.000000 0.000000 0.000000 0.000000 0.000000 0.000000 10.000000 
R_front_hand 0.000000 0.000000 0.000000 0.000000 0.000000 0.000000 10.000000 
R_weapon_bone 0.000000 0.000000 0.000000 0.000000 0.000000 0.000000 10.000000 
R_front_hand01_01 0.000000 0.000000 0.000000 0.000000 0.000000 0.000000 10.000000 
R_front_hand02_01 0.000000 0.000000 0.000000 0.000000 0.000000 0.000000 10.000000 
R_front_hand03_01 0.000000 0.000000 0.000000 0.000000 0.000000 0.000000 10.000000 
R_front_hand01_02 0.000000 0.000000 0.000000 0.000000 0.000000 0.000000 10.000000 
R_front_hand02_02 0.000000 0.000000 0.000000 0.000000 0.000000 0.000000 10.000000 
R_front_hand03_02 0.000000 0.000000 0.000000 0.000000 0.000000 0.000000 10.000000 
null_rope01_connect 0.000000 0.000000 0.000000 0.000000 0.000000 0.000000 10.000000 
Rope1_Seg01 0.000000 0.000000 0.000000 0.000000 0.000000 0.000000 10.000000 
Rope1_Seg02 0.000000 0.000000 0.000000 0.000000 0.000000 0.000000 10.000000 
Rope1_Seg03 0.000000 0.000000 0.000000 0.000000 0.000000 0.000000 10.000000 
Rope1_Seg04 0.000000 0.000000 0.000000 0.000000 0.000000 0.000000 10.000000 
Rope1_Seg05 0.000000 0.000000 0.000000 0.000000 0.000000 0.000000 10.000000 
Rope1_Seg06 0.000000 0.000000 0.000000 0.000000 0.000000 0.000000 10.000000 
Rope1_Seg07 0.000000 0.000000 0.000000 0.000000 0.000000 0.000000 10.000000 
Rope1_Seg09 0.000000 0.000000 0.000000 0.000000 0.000000 0.000000 10.000000 
L_mid_hand01 0.000000 0.000000 0.000000 0.000000 0.000000 0.000000 10.000000 
L_mid_hand02 0.000000 0.000000 0.000000 0.000000 0.000000 0.000000 10.000000 
L_mid_hand03 0.000000 0.000000 0.000000 0.000000 0.000000 0.000000 10.000000 
null_rope02_connect 0.000000 0.000000 0.000000 0.000000 0.000000 0.000000 10.000000 
Rope2_Seg01 0.000000 0.000000 0.000000 0.000000 0.000000 0.000000 10.000000 
Rope2_Seg02 0.000000 0.000000 0.000000 0.000000 0.000000 0.000000 10.000000 
Rope2_Seg03 0.000000 0.000000 0.000000 0.000000 0.000000 0.000000 10.000000 
Rope2_Seg04 0.000000 0.000000 0.000000 0.000000 0.000000 0.000000 10.000000 
Rope2_Seg05 0.000000 0.000000 0.000000 0.000000 0.000000 0.000000 10.000000 
Rope2_Seg06 0.000000 0.000000 0.000000 0.000000 0.000000 0.000000 10.000000 
Rope2_Seg07 0.000000 0.000000 0.000000 0.000000 0.000000 0.000000 10.000000 
Rope2_Seg09 0.000000 0.000000 0.000000 0.000000 0.000000 0.000000 10.000000 
R_mid_hand01 0.000000 0.000000 0.000000 0.000000 0.000000 0.000000 10.000000 
R_mid_hand02 0.000000 0.000000 0.000000 0.000000 0.000000 0.000000 10.000000 
R_mid_hand03 0.000000 0.000000 0.000000 0.000000 0.000000 0.000000 10.000000 
spine02 0.000000 0.000000 0.000000 0.000000 0.000000 0.000000 10.000000 
spine03 0.000000 0.000000 0.000000 0.000000 0.000000 0.000000 10.000000 
pelvis 0.000000 0.000000 0.000000 0.000000 0.000000 0.000000 10.000000 
null_rope03_connect 0.000000 0.000000 0.000000 0.000000 0.000000 0.000000 10.000000 
null_rope04_connect 0.000000 0.000000 0.000000 0.000000 0.000000 0.000000 10.000000 
Rope3_Seg01 0.000000 0.000000 0.000000 0.000000 0.000000 0.000000 10.000000 
Rope3_Seg02 0.000000 0.000000 0.000000 0.000000 0.000000 0.000000 10.000000 
Rope3_Seg03 0.000000 0.000000 0.000000 0.000000 0.000000 0.000000 10.000000 
Rope3_Seg04 0.000000 0.000000 0.000000 0.000000 0.000000 0.000000 10.000000 
Rope3_Seg05 0.000000 0.000000 0.000000 0.000000 0.000000 0.000000 10.000000 
Rope3_Seg06 0.000000 0.000000 0.000000 0.000000 0.000000 0.000000 10.000000 
Rope3_Seg07 0.000000 0.000000 0.000000 0.000000 0.000000 0.000000 10.000000 
Rope3_Seg08 0.000000 0.000000 0.000000 0.000000 0.000000 0.000000 10.000000 
Rope3_Seg09 0.000000 0.000000 0.000000 0.000000 0.000000 0.000000 10.000000 
R_rear_hand01 0.000000 0.000000 0.000000 0.000000 0.000000 0.000000 10.000000 
R_rear_hand02 0.000000 0.000000 0.000000 0.000000 0.000000 0.000000 10.000000 
R_rear_hand03 0.000000 0.000000 0.000000 0.000000 0.000000 0.000000 10.000000 
Rope4_Seg01 0.000000 0.000000 0.000000 0.000000 0.000000 0.000000 10.000000 
Rope4_Seg02 0.000000 0.000000 0.000000 0.000000 0.000000 0.000000 10.000000 
Rope4_Seg03 0.000000 0.000000 0.000000 0.000000 0.000000 0.000000 10.000000 
Rope4_Seg04 0.000000 0.000000 0.000000 0.000000 0.000000 0.000000 10.000000 
Rope4_Seg05 0.000000 0.000000 0.000000 0.000000 0.000000 0.000000 10.000000 
Rope4_Seg06 0.000000 0.000000 0.000000 0.000000 0.000000 0.000000 10.000000 
Rope4_Seg07 0.000000 0.000000 0.000000 0.000000 0.000000 0.000000 10.000000 
Rope4_Seg08 0.000000 0.000000 0.000000 0.000000 0.000000 0.000000 10.000000 
Rope4_Seg09 0.000000 0.000000 0.000000 0.000000 0.000000 0.000000 10.000000 
L_rear_hand01 0.000000 0.000000 0.000000 0.000000 0.000000 0.000000 10.000000 
L_rear_hand02 0.000000 0.000000 0.000000 0.000000 0.000000 0.000000 10.000000 
L_rear_hand03 0.000000 0.000000 0.000000 0.000000 0.000000 0.000000 10.000000 
#Beginning of Data. Separated by tabs
#Fr	Tx	Ty	Tz	Rx	Ry	Rz	SF
[MASTER]
45 2459.854980 2790.114502 1858.669800 0.001660 0.001660 0.001660 4158.158203
46 2458.262695 2790.114502 1857.104248 0.001660 0.001660 0.001660 4156.516602
[root]
45 98.974289 -51.398621 304.633606 -11.573747 3.216340 -113.088829 324.406189
46 99.629456 -51.398621 304.620850 -11.559924 3.221388 -113.102715 324.594696
[chest]
45 -84.512650 -34.090519 0.000000 20.272532 10.867376 156.583435 91.129311
46 -84.512650 -34.090519 0.000000 20.496048 10.855316 156.784912 91.129311
[L_mid_tent01]
45 27.299006 22.179173 -249.918701 2.570369 20.111824 86.466072 252.381683
46 27.299004 22.179174 -249.918701 2.639079 20.121218 86.594818 252.381683
[R_mid_tent01]
45 23.228794 24.509907 226.238495 172.118317 -18.570650 71.210175 228.744751
46 23.228794 24.509907 226.238495 172.234406 -18.453249 71.323746 228.744751
[spine01]
45 -0.361383 -0.195265 0.000000 0.001918 0.001353 19.605436 0.410763
46 -0.361383 -0.195265 0.000000 0.001919 0.001352 19.669430 0.410763
[Bip01_Neck]
45 165.484543 71.581718 0.000119 176.643677 -1.657967 43.431911 180.302734
46 165.484543 71.581718 0.000119 176.643677 -1.657967 43.431911 180.302734
[L_humerus]
45 -13.983130 -135.272980 -120.471481 15.099809 59.160122 131.096863 181.680161
46 -13.983130 -135.272980 -120.471481 14.739108 58.785545 130.709702 181.680161
[R_humerus]
45 -13.983309 -135.273102 125.287651 -165.466232 -74.303276 -99.879295 184.909012
46 -13.983309 -135.273102 125.287651 -165.159958 -74.613701 -100.199348 184.909012
[weapon_bone]
45 235.964890 -300.705902 0.000000 0.000000 -89.951546 -128.212341 382.234833
46 235.964890 -300.705902 0.000000 0.000000 -89.951546 -128.212341 382.234833
[Bip01_Head]
45 201.027786 166.803696 49.229103 78.136925 38.518360 -13.657246 265.817871
46 201.027771 166.803680 49.229095 78.136940 38.518364 -13.657246 265.817871
[eye_left_bone]
45 -24.626970 125.451866 -64.772606 0.000000 -90.000000 -99.840431 143.318359
46 -24.626970 125.451866 -64.772606 0.000000 -90.000000 -99.840431 143.318359
[eye_right_bone]
45 -24.626970 125.451866 64.327362 0.000000 -89.965736 80.156380 143.117676
46 -24.626970 125.451866 64.327362 0.000000 -89.972023 80.156387 143.117676
[L_forearm]
45 322.776093 0.000000 -0.000119 0.000030 0.002347 -88.530296 322.776093
46 322.776093 0.000000 -0.000119 0.000026 0.002347 -88.747826 322.776093
[L_front_hand]
45 241.149185 -0.042021 -3.300071 60.145355 -2.204066 -5.138963 241.171753
46 241.149185 -0.042021 -3.300071 60.145355 -2.204067 -5.138964 241.171753
[L_weapon_bone]
45 156.183838 0.000000 0.000000 0.000014 0.000007 0.000001 156.183838
46 156.183838 0.000000 0.000000 0.000014 0.000007 0.000001 156.183838
[L_front_hand01_01]
45 86.095154 20.947098 -0.655860 -0.366594 -0.477154 75.385574 88.609184
46 86.095154 20.947098 -0.655860 -0.366594 -0.477154 75.385574 88.609184
[L_front_hand02_01]
45 86.935165 -11.437475 24.513514 154.399796 -59.883835 -61.369587 91.046425
46 86.935165 -11.437475 24.513514 154.399796 -59.883835 -61.369587 91.046425
[L_front_hand03_01]
45 86.637497 -14.123976 -20.424902 -153.913849 58.118122 -62.702866 90.126129
46 86.637497 -14.123976 -20.424902 -153.913849 58.118130 -62.702866 90.126129
[L_front_hand01_02]
45 71.020905 -0.000179 0.000030 0.000334 -0.002323 -106.379684 71.020905
46 71.020905 -0.000179 0.000030 0.000334 -0.002323 -106.379684 71.020905
[L_front_hand02_02]
45 71.020927 -0.000119 0.000060 0.000334 -0.002323 -106.379684 71.020927
46 71.020927 -0.000119 0.000060 0.000334 -0.002323 -106.379684 71.020927
[L_front_hand03_02]
45 71.020905 -0.000060 0.000060 0.000334 -0.002323 -106.379684 71.020905
46 71.020905 -0.000060 0.000060 0.000334 -0.002323 -106.379684 71.020905
[R_forearm]
45 322.776428 -0.000060 0.000030 0.201055 0.068322 -109.861420 322.776428
46 322.776428 -0.000060 0.000030 0.201068 0.068284 -109.840279 322.776428
[R_front_hand]
45 238.847015 -0.006795 2.210259 -2.635298 -10.645461 -26.312506 238.857239
46 238.847015 -0.006795 2.210259 -2.635298 -10.645460 -26.312500 238.857239
[R_weapon_bone]
45 155.664093 0.002503 -0.000030 0.003487 0.001180 -90.988930 155.664078
46 155.664093 0.002503 -0.000030 0.003487 0.001180 -90.988930 155.664078
[R_front_hand01_01]
45 87.624611 14.231146 22.918642 -154.633499 -59.950619 61.746044 91.683487
46 87.624611 14.231146 22.918642 -154.633499 -59.950619 61.746044 91.683487
[R_front_hand02_01]
45 89.356956 14.367283 -19.491137 154.602661 58.302849 63.744389 92.579636
46 89.356956 14.367283 -19.491137 154.602661 58.302849 63.744389 92.579636
[R_front_hand03_01]
45 87.286232 -22.307278 -0.143439 0.162155 -0.423168 -75.767906 90.091743
46 87.286232 -22.307278 -0.143439 0.162155 -0.423168 -75.767906 90.091743
[R_front_hand01_02]
45 71.020905 0.000060 0.000119 0.002323 -0.000334 106.381714 71.020905
46 71.020905 0.000060 0.000119 0.002323 -0.000334 106.381706 71.020905
[R_front_hand02_02]
45 71.020844 -0.000030 -0.000119 0.002323 -0.000334 106.381714 71.020836
46 71.020844 -0.000030 -0.000119 0.002323 -0.000334 106.381706 71.020836
[R_front_hand03_02]
45 71.020905 0.000000 0.000030 0.002323 -0.000334 106.381714 71.020905
46 71.020905 0.000000 0.000030 0.002323 -0.000334 106.381706 71.020905
[null_rope01_connect]
45 328.732483 0.000000 -0.000238 -20.075760 -25.794266 31.209631 328.732483
46 328.732483 0.000000 -0.000238 -20.105698 -25.771488 31.133112 328.732483
[Rope1_Seg01]
45 -0.000017 -0.000156 0.000085 -24.544111 41.960945 147.429520 0.000178
46 -0.000017 -0.000158 0.000084 -24.044460 41.716499 148.148163 0.000180
[Rope1_Seg02]
45 139.999863 -0.000179 0.000000 -15.744818 30.630400 -21.354446 139.999863
46 139.999863 -0.000179 0.000000 -15.707131 30.821098 -21.609426 139.999863
[Rope1_Seg03]
45 139.999924 0.000060 -0.000060 -29.589489 21.126558 -6.900526 139.999924
46 139.999924 0.000060 -0.000060 -30.677736 21.748672 -7.345157 139.999924
[Rope1_Seg04]
45 139.999924 -0.000060 -0.000119 -22.015772 8.408173 1.424829 139.999924
46 139.999924 -0.000060 -0.000119 -23.042686 8.586908 1.568668 139.999924
[Rope1_Seg05]
45 139.999832 0.000119 -0.000060 -27.124176 8.437876 1.850180 139.999832
46 139.999832 0.000119 -0.000060 -27.185062 8.293726 2.151126 139.999832
[Rope1_Seg06]
45 139.999954 0.000119 -0.000060 -54.568619 16.760834 10.743141 139.999954
46 139.999954 0.000119 -0.000060 -52.370686 16.086977 11.157933 139.999954
[Rope1_Seg07]
45 139.999985 0.000060 0.000000 -19.446199 0.055567 23.309759 139.999985
46 139.999985 0.000060 0.000000 -19.287518 0.100798 23.286331 139.999985
[Rope1_Seg09]
45 121.602913 0.000119 -0.000089 -89.793175 -1.359789 0.847147 121.602913
46 121.602913 0.000119 -0.000089 -89.793175 -1.359789 0.847147 121.602913
[L_mid_hand01]
45 103.859421 1.038730 8.195221 130.544373 -67.584534 -38.866943 104.187431
46 103.859421 1.038730 8.195221 130.544373 -67.584534 -38.866943 104.187431
[L_mid_hand02]
45 105.572853 -4.139662 -10.864139 -168.923172 43.409309 -73.498894 106.211075
46 105.572853 -4.139662 -10.864139 -168.923172 43.409309 -73.498886 106.211075
[L_mid_hand03]
45 104.641464 17.579376 -3.913581 -6.012627 17.808174 74.893669 106.179977
46 104.641464 17.579376 -3.913581 -6.012627 17.808174 74.893669 106.179977
[null_rope02_connect]
45 328.732849 0.000179 -0.000119 -169.268188 0.761912 -41.837170 328.732849
46 328.732849 0.000179 -0.000119 -169.444641 0.721373 -41.729439 328.732849
[Rope2_Seg01]
45 0.000032 0.000220 0.000000 -30.715490 -75.395523 -164.386520 0.000222
46 0.000031 0.000221 0.000000 -30.992981 -75.472511 -164.104233 0.000223
[Rope2_Seg02]
45 139.999741 -0.000060 -0.000119 -1.930256 -3.739463 -31.882675 139.999756
46 139.999741 -0.000060 -0.000119 -1.978615 -3.768496 -32.066460 139.999756
[Rope2_Seg03]
45 140.000107 0.000030 0.000000 8.750964 -2.780653 -51.844173 140.000107
46 140.000107 0.000030 0.000000 8.565753 -2.738845 -51.394314 140.000107
[Rope2_Seg04]
45 139.999802 0.000000 -0.000060 7.708347 -3.793497 -21.301636 139.999802
46 139.999802 0.000000 -0.000060 7.559153 -3.698474 -21.076159 139.999802
[Rope2_Seg05]
45 139.999985 -0.000060 0.000119 1.523545 -1.913798 -3.704851 139.999985
46 139.999985 -0.000060 0.000119 1.533484 -1.888067 -3.756634 139.999985
[Rope2_Seg06]
45 139.999893 -0.000030 -0.000119 -0.237983 -1.237462 1.122044 139.999893
46 139.999893 -0.000030 -0.000119 -0.191961 -1.243086 0.978115 139.999893
[Rope2_Seg07]
45 139.999893 0.000060 -0.000060 -0.195224 -1.435757 1.107106 139.999893
46 139.999893 0.000060 -0.000060 -0.123072 -1.446577 0.868795 139.999893
[Rope2_Seg09]
45 121.338966 0.000089 -0.000060 33.793236 -1.359788 -0.847141 121.338966
46 121.338966 0.000089 -0.000060 33.793236 -1.359788 -0.847141 121.338966
[R_mid_hand01]
45 104.680779 11.144459 -10.335981 -16.212063 45.237247 70.462852 105.778534
46 104.680779 11.144459 -10.335981 -16.212063 45.237247 70.462852 105.778534
[R_mid_hand02]
45 104.070427 2.443552 8.231699 49.067368 -67.749771 39.286453 104.424065
46 104.070427 2.443552 8.231699 49.067371 -67.749794 39.286461 104.424065
[R_mid_hand03]
45 106.028137 -11.221827 -5.996406 -177.101105 15.551026 -76.585571 106.788818
46 106.028137 -11.221827 -5.996406 -177.101105 15.551026 -76.585571 106.788818
[spine02]
45 129.756927 0.001550 0.000119 0.537248 -4.023965 -15.491552 129.756927
46 129.756927 0.001550 0.000119 0.535072 -4.024258 -15.457516 129.756927
[spine03]
45 78.614120 0.081482 -4.899017 2.004218 3.776442 18.078176 78.766663
46 78.614120 0.081482 -4.899017 2.002129 3.777787 18.053791 78.766663
[pelvis]
45 169.435242 0.051022 0.000000 -0.025311 -0.190507 3.722592 169.435257
46 169.435242 0.051022 0.000000 -0.023695 -0.190614 3.345467 169.435257
[null_rope03_connect]
45 -1.257226 -2.466202 137.391083 -7.093258 -8.138699 87.408920 137.418976
46 -1.257226 -2.466202 137.391083 -7.095367 -8.123021 87.725380 137.418976
[null_rope04_connect]
45 -1.259640 -2.480268 -137.844437 -7.093258 -8.138699 87.408920 137.872513
46 -1.259640 -2.480268 -137.844437 -7.095367 -8.123021 87.725380 137.872513
[Rope3_Seg01]
45 -0.000027 -0.000156 0.000000 34.620720 -56.300674 -90.593521 0.000158
46 -0.000028 -0.000158 0.000000 35.722904 -56.549267 -91.792336 0.000161
[Rope3_Seg02]
45 139.999924 -0.000119 0.000060 1.463978 -0.076113 8.401724 139.999924
46 139.999924 -0.000119 0.000060 1.536612 -0.034333 8.585821 139.999924
[Rope3_Seg03]
45 139.999924 -0.000119 0.000119 0.321186 2.689740 34.799744 139.999924
46 139.999924 -0.000119 0.000119 0.532513 2.991965 34.891666 139.999924
[Rope3_Seg04]
45 139.999924 0.000119 0.000000 -43.774158 -1.378843 61.115025 139.999924
46 139.999924 0.000119 0.000000 -42.119473 -1.029124 60.301521 139.999924
[Rope3_Seg05]
45 139.999924 -0.000238 0.000060 3.968711 -1.108164 -7.316489 139.999924
46 139.999924 -0.000238 0.000060 2.928272 -1.922366 -6.939246 139.999924
[Rope3_Seg06]
45 139.999893 -0.000119 -0.000060 -0.933378 -1.410267 0.018092 139.999893
46 139.999893 -0.000119 -0.000060 -1.077800 -1.515927 0.090111 139.999893
[Rope3_Seg07]
45 139.999771 0.000060 -0.000119 -0.312061 -0.838936 0.066592 139.999771
46 139.999771 0.000060 -0.000119 -0.389871 -0.898118 0.103633 139.999771
[Rope3_Seg08]
45 139.999985 -0.000060 0.000000 0.080660 -0.478095 0.031000 139.999985
46 139.999985 -0.000060 0.000000 0.028582 -0.513946 0.062119 139.999985
[Rope3_Seg09]
45 90.185997 -0.000179 -0.000060 89.793228 -1.359877 -0.847183 90.185997
46 90.185997 -0.000179 -0.000060 89.793228 -1.359877 -0.847183 90.185997
[R_rear_hand01]
45 103.366196 -6.073594 -10.757982 -177.714203 24.565960 -73.910950 104.101845
46 103.366196 -6.073594 -10.757982 -177.714203 24.565960 -73.910950 104.101845
[R_rear_hand02]
45 100.509819 12.039542 -7.992327 -12.874829 36.868488 72.167213 101.543350
46 100.509819 12.039542 -7.992327 -12.874829 36.868488 72.167213 101.543350
[R_rear_hand03]
45 101.539970 5.215704 5.435467 71.484581 -71.816628 21.513813 101.819031
46 101.539970 5.215704 5.435467 71.484581 -71.816628 21.513813 101.819031
[Rope4_Seg01]
45 0.000010 0.000038 -0.000114 -104.442635 67.399185 -97.854454 0.000121
46 0.000010 0.000038 -0.000114 -103.892815 67.263130 -97.283997 0.000121
[Rope4_Seg02]
45 139.999985 0.000060 0.000119 -1.584943 -8.538815 4.248786 139.999985
46 139.999985 0.000060 0.000119 -1.563468 -8.555870 4.292745 139.999985
[Rope4_Seg03]
45 139.999924 0.000000 -0.000238 -1.308117 -15.521068 7.435296 139.999924
46 139.999924 0.000000 -0.000238 -1.278606 -15.601454 7.545397 139.999924
[Rope4_Seg04]
45 139.999985 0.000000 0.000119 2.139961 -26.966949 16.649035 139.999985
46 139.999985 0.000000 0.000119 2.239949 -27.078936 17.005487 139.999985
[Rope4_Seg05]
45 139.999802 -0.000060 -0.000119 9.231533 -21.433674 13.590934 139.999802
46 139.999802 -0.000060 -0.000119 9.267012 -21.273975 13.571018 139.999802
[Rope4_Seg06]
45 139.999924 0.000000 0.000060 3.451613 -10.177383 -0.355456 139.999924
46 139.999924 0.000000 0.000060 3.335876 -10.170366 -0.543628 139.999924
[Rope4_Seg07]
45 139.999802 0.000000 0.000000 1.986445 -7.310123 -1.647932 139.999802
46 139.999802 0.000000 0.000000 2.066129 -7.294644 -1.564517 139.999802
[Rope4_Seg08]
45 139.999924 0.000000 0.000119 2.180787 -4.507291 0.977707 139.999924
46 139.999924 0.000000 0.000119 2.156592 -4.460560 0.972712 139.999924
[Rope4_Seg09]
45 90.185791 0.000060 0.000060 -135.617828 2.228885 0.850567 90.185791
46 90.185791 0.000060 0.000060 -135.617828 2.228885 0.850567 90.185791
[L_rear_hand01]
45 101.696655 -8.392275 -7.654577 -12.874829 -36.868488 107.832764 102.329041
46 101.696655 -8.392275 -7.654577 -12.874829 -36.868488 107.832764 102.329041
[L_rear_hand02]
45 102.726799 -1.568258 5.773216 71.484589 71.816643 158.486160 102.900848
46 102.726799 -1.568258 5.773216 71.484581 71.816628 158.486160 102.900848
[L_rear_hand03]
45 104.552910 9.721220 -10.420293 -177.714203 -24.565960 -106.089035 105.519653
46 104.552910 9.721220 -10.420293 -177.714203 -24.565960 -106.089035 105.519653
